<?xml version="1.0" encoding="utf-8"?>
<!-- Generator: Adobe Illustrator 25.2.2, SVG Export Plug-In . SVG Version: 6.00 Build 0)  -->
<svg version="1.1" id="Layer_1" xmlns="http://www.w3.org/2000/svg" xmlns:xlink="http://www.w3.org/1999/xlink" x="0px" y="0px"
	 viewBox="0 0 20 20" style="enable-background:new 0 0 20 20;" xml:space="preserve">
<style type="text/css">
	.st0{fill-rule:evenodd;clip-rule:evenodd;fill:#FFFFFF;}
	.st1{fill:#FFFFFF;}
</style>
<path class="st0" d="M10,19c5,0,9-4,9-9c0-5-4-9-9-9c-5,0-9,4-9,9C1,15,5,19,10,19z M10,20c5.5,0,10-4.5,10-10c0-5.5-4.5-10-10-10
	C4.5,0,0,4.5,0,10C0,15.5,4.5,20,10,20z"/>
<g>
	<path class="st1" d="M14.1,8.3c0-0.3,0.2-0.5,0.5-0.5c0.3,0,0.5,0.2,0.5,0.5v3c0,0.3-0.2,0.5-0.5,0.5c-0.3,0-0.5-0.2-0.5-0.5V8.3z"
		/>
	<path class="st1" d="M13,10.4c-0.3,0-0.5-0.2-0.5-0.5s0.2-0.5,0.5-0.5h3.1c0.3,0,0.5,0.2,0.5,0.5s-0.2,0.5-0.5,0.5H13z"/>
	<path class="st1" d="M3.7,13c-0.1,0-0.2,0-0.3-0.1c-0.1-0.1-0.1-0.3-0.1-0.3v-0.6c0-0.4,0.1-0.8,0.2-1c0.1-0.2,0.3-0.5,0.5-0.6
		c0.2-0.2,0.6-0.4,1.2-0.8c0.2-0.1,0.3-0.2,0.4-0.4C5.8,9,5.9,8.8,5.9,8.7c0-0.2-0.1-0.4-0.2-0.5C5.5,8,5.3,7.9,5,7.9
		C4.7,7.9,4.3,8,4,8.2c0,0-0.1,0-0.1,0c-0.1,0-0.1,0-0.1-0.1L3.5,7.7c0,0,0-0.1,0-0.1c0-0.1,0-0.1,0.1-0.1C3.7,7.3,4,7.2,4.3,7.1
		C4.5,7,4.8,7,5.1,7c0.5,0,1,0.1,1.3,0.4c0.3,0.3,0.5,0.7,0.5,1.2c0,0.4-0.1,0.7-0.3,0.9c-0.2,0.3-0.5,0.5-0.9,0.8
		c-0.1,0.1-0.2,0.1-0.3,0.2c-0.2,0.1-0.4,0.3-0.5,0.4c-0.1,0.1-0.2,0.2-0.3,0.3c-0.1,0.1-0.1,0.3-0.1,0.5V12h2.3c0,0,0.1,0,0.1,0
		c0,0,0,0.1,0,0.1v0.6c0,0,0,0.2,0,0.2c0,0-0.1,0-0.1,0H3.7z"/>
	<path class="st1" d="M9.6,13c-0.7,0-1.2-0.3-1.5-0.8C7.7,11.7,7.5,11,7.5,10c0-1,0.2-1.7,0.5-2.2C8.4,7.3,8.9,7,9.6,7
		c0.7,0,1.2,0.3,1.5,0.8c0.3,0.5,0.5,1.3,0.5,2.2c0,1-0.2,1.7-0.5,2.3C10.8,12.7,10.2,13,9.6,13z M9.6,12.1c0.3,0,0.5-0.1,0.6-0.2
		c0.2-0.1,0.3-0.4,0.3-0.7c0.1-0.3,0.1-0.7,0.1-1.2c0-0.5,0-0.9-0.1-1.2c-0.1-0.3-0.2-0.5-0.3-0.7C10,8,9.8,7.9,9.6,7.9
		C9.3,7.9,9.1,8,8.9,8.1C8.8,8.3,8.7,8.5,8.6,8.8C8.5,9.1,8.5,9.5,8.5,10c0,0.7,0.1,1.3,0.2,1.6C8.9,11.9,9.2,12.1,9.6,12.1z"/>
</g>
</svg>
