<svg width="24" height="20" viewBox="0 0 24 20" fill="none" xmlns="http://www.w3.org/2000/svg">
<path d="M7.56475 10.2415C7.74342 10.9083 7.34769 11.5938 6.68086 11.7724C6.01403 11.9511 5.32861 11.5554 5.14993 10.8885C4.97125 10.2217 5.36698 9.53629 6.03381 9.35761C6.12221 9.33393 6.16338 9.19871 6.10331 9.12968C5.98246 8.9908 5.89056 8.82296 5.8397 8.63317C5.66102 7.96634 6.05675 7.28091 6.72358 7.10224C7.39042 6.92356 8.07584 7.31929 8.25451 7.98612C8.30537 8.17592 8.30969 8.36722 8.27448 8.54791C8.25697 8.63774 8.36023 8.73425 8.44863 8.71057C9.11546 8.53189 9.80088 8.92762 9.97956 9.59445C10.1582 10.2613 9.76251 10.9467 9.09568 11.1254C8.42884 11.3041 7.74342 10.9083 7.56475 10.2415Z" fill="#F20574"/>
<path d="M7.82356 11.2074L7.18116 12.6736L9.11301 12.156L7.82356 11.2074Z" fill="#F20574"/>
<path fill-rule="evenodd" clip-rule="evenodd" d="M15.3192 0.883781C13.9855 0.526426 12.6147 1.31788 12.2573 2.65155L12 3.61187L11.7427 2.65155C11.3854 1.31788 10.0145 0.526425 8.68085 0.88378L1.91937 2.69551C0.585704 3.05287 -0.205753 4.42371 0.151602 5.75738L3.25743 17.3485C3.61479 18.6821 4.98563 19.4736 6.31929 19.1163L12 17.5941L17.6808 19.1163C19.0144 19.4736 20.3853 18.6822 20.7426 17.3485L23.8485 5.75738C24.2058 4.42371 23.4144 3.05287 22.0807 2.69551L15.3192 0.883781ZM10.2635 17.0241C9.34075 16.4615 8.85763 15.3395 9.15152 14.2427L11.4824 5.54372L10.7768 2.91037C10.5624 2.11017 9.73987 1.63529 8.93967 1.84971L2.17819 3.66144C1.37799 3.87585 0.903115 4.69836 1.11753 5.49856L4.22336 17.0897C4.43777 17.8899 5.26027 18.3647 6.06047 18.1503L10.2635 17.0241ZM13.2233 2.91037C13.4377 2.11017 14.2602 1.63529 15.0604 1.84971L21.8219 3.66144C22.6221 3.87585 23.0969 4.69836 22.8825 5.49856L19.7767 17.0897C19.5623 17.8899 18.7398 18.3647 17.9396 18.1503L11.1781 16.3386C10.3779 16.1242 9.90303 15.3017 10.1174 14.5015L13.2233 2.91037Z" fill="#F20574"/>
<path d="M16.8425 8.72181C16.5003 7.465 14.6339 7.30504 14.2689 8.66719C14.0176 9.60515 14.8817 10.8646 15.8314 12.4954C17.4694 11.558 18.8472 10.8992 19.0986 9.96129C19.4648 8.5945 17.7605 7.81129 16.8425 8.72181Z" fill="#F20574"/>
</svg>