<?xml version="1.0" encoding="utf-8"?>
<!-- Generator: Adobe Illustrator 25.2.2, SVG Export Plug-In . SVG Version: 6.00 Build 0)  -->
<svg version="1.1" id="Layer_1" xmlns="http://www.w3.org/2000/svg" xmlns:xlink="http://www.w3.org/1999/xlink" x="0px" y="0px"
	 viewBox="0 0 50.5 54" style="enable-background:new 0 0 50.5 54;" xml:space="preserve">
<style type="text/css">
	.st0{fill:#F20574;}
</style>
<g>
	<path class="st0" d="M48.3,28.8c2-2,2-5.3,0-7.4L29.5,2.6c-2-2-5.3-2-7.4,0l0,0c-2,2-2,5.3,0,7.4l18.8,18.8
		C42.9,30.9,46.2,30.9,48.3,28.8L48.3,28.8z"/>
	<path class="st0" d="M2.5,28.8c2,2,5.3,2,7.4,0L28.7,10c2-2,2-5.3,0-7.4l0,0c-2-2-5.3-2-7.4,0L2.5,21.4C0.5,23.5,0.5,26.8,2.5,28.8
		L2.5,28.8z"/>
</g>
<path class="st0" d="M25.2,53.2c2.9,0,5.2-2.3,5.2-5.2l0-36.6c0-2.9-2.3-5.2-5.2-5.2l0,0c-2.9,0-5.2,2.3-5.2,5.2V48
	C20,50.9,22.3,53.2,25.2,53.2L25.2,53.2z"/>
</svg>
