<?xml version="1.0" encoding="utf-8"?>
<!-- Generator: Adobe Illustrator 25.2.2, SVG Export Plug-In . SVG Version: 6.00 Build 0)  -->
<svg version="1.1" id="Layer_1" xmlns="http://www.w3.org/2000/svg" xmlns:xlink="http://www.w3.org/1999/xlink" x="0px" y="0px"
	 viewBox="0 0 10.9 10.9" style="enable-background:new 0 0 10.9 10.9;" xml:space="preserve">
<style type="text/css">
	.st0{fill-rule:evenodd;clip-rule:evenodd;fill:#777777;}
	.st1{fill:#FFFFFF;}
</style>
<path class="st0" d="M5.5,0C2.5,0,0,2.5,0,5.5s2.5,5.5,5.5,5.5s5.5-2.5,5.5-5.5S8.5,0,5.5,0z"/>
<path class="st1" d="M4.1,3.5c-0.2-0.2-0.2-0.6,0-0.9s0.6-0.2,0.9,0L7.4,5c0.2,0.2,0.2,0.6,0,0.9L5,8.3c-0.2,0.2-0.6,0.2-0.9,0
	c-0.2-0.2-0.2-0.6,0-0.9l2-2L4.1,3.5z"/>
</svg>
