<?xml version="1.0" encoding="utf-8"?>
<!-- Generator: Adobe Illustrator 25.2.2, SVG Export Plug-In . SVG Version: 6.00 Build 0)  -->
<svg version="1.1" id="Layer_1" xmlns="http://www.w3.org/2000/svg" xmlns:xlink="http://www.w3.org/1999/xlink" x="0px" y="0px"
	 viewBox="0 0 50.5 54" style="enable-background:new 0 0 50.5 54;" xml:space="preserve">
<style type="text/css">
	.st0{fill:#F20574;}
</style>
<g>
	<path class="st0" d="M28.7,4.3c-2-2-5.3-2-7.4,0L2.5,23.1c-2,2-2,5.3,0,7.4l0,0c2,2,5.3,2,7.4,0l18.8-18.8
		C30.8,9.6,30.8,6.3,28.7,4.3L28.7,4.3z"/>
	<path class="st0" d="M28.7,50c2-2,2-5.3,0-7.4L9.9,23.9c-2-2-5.3-2-7.4,0l0,0c-2,2-2,5.3,0,7.4L21.3,50
		C23.4,52.1,26.7,52.1,28.7,50L28.7,50z"/>
</g>
<path class="st0" d="M50.5,27.4c0-2.9-2.3-5.2-5.2-5.2l-34,0c-2.9,0-5.2,2.3-5.2,5.2l0,0c0,2.9,2.3,5.2,5.2,5.2h34
	C48.2,32.6,50.5,30.3,50.5,27.4L50.5,27.4z"/>
</svg>
