<?xml version="1.0" encoding="utf-8"?>
<!-- Generator: Adobe Illustrator 25.2.2, SVG Export Plug-In . SVG Version: 6.00 Build 0)  -->
<svg version="1.1" id="Layer_1" xmlns="http://www.w3.org/2000/svg" xmlns:xlink="http://www.w3.org/1999/xlink" x="0px" y="0px"
	 viewBox="0 0 50.5 54" style="enable-background:new 0 0 50.5 54;" xml:space="preserve">
<style type="text/css">
	.st0{fill:#F20574;}
</style>
<g>
	<path class="st0" d="M48.3,25.5c-2-2-5.3-2-7.4,0L22.1,44.3c-2,2-2,5.3,0,7.4l0,0c2,2,5.3,2,7.4,0l18.8-18.8
		C50.3,30.9,50.3,27.6,48.3,25.5L48.3,25.5z"/>
	<path class="st0" d="M2.5,25.5c-2,2-2,5.3,0,7.4l18.8,18.8c2,2,5.3,2,7.4,0l0,0c2-2,2-5.3,0-7.4L9.9,25.5
		C7.9,23.5,4.6,23.5,2.5,25.5L2.5,25.5z"/>
</g>
<path class="st0" d="M25.2,1.1c-2.9,0-5.2,2.3-5.2,5.2v36.6c0,2.9,2.3,5.2,5.2,5.2l0,0c2.9,0,5.2-2.3,5.2-5.2l0-36.6
	C30.4,3.4,28.1,1.1,25.2,1.1L25.2,1.1z"/>
</svg>
