<?xml version="1.0" encoding="utf-8"?>
<!-- Generator: Adobe Illustrator 24.0.3, SVG Export Plug-In . SVG Version: 6.00 Build 0)  -->
<svg version="1.1" id="Layer_1" xmlns="http://www.w3.org/2000/svg" xmlns:xlink="http://www.w3.org/1999/xlink" x="0px" y="0px"
	 viewBox="0 0 50.5 54" style="enable-background:new 0 0 50.5 54;" xml:space="preserve">
<style type="text/css">
	.st0{fill:#F20574;}
</style>
<path class="st0" d="M48.97,23.11L30.16,4.3c-2.04-2.04-5.34-2.04-7.38,0c-2.04,2.04-2.03,5.34,0,7.38l10.5,10.5l-27.06,0
	C3.34,22.18,1,24.51,1,27.39c0,2.88,2.34,5.22,5.22,5.22h26.62L22.78,42.67c-2.03,2.04-2.04,5.34,0,7.38c2.04,2.04,5.34,2.03,7.38,0
	l18.81-18.81c1.11-1.12,1.6-2.61,1.49-4.06C50.57,25.72,50.09,24.22,48.97,23.11z"/>
</svg>
