<?xml version="1.0" encoding="utf-8"?>
<!-- Generator: Adobe Illustrator 25.2.2, SVG Export Plug-In . SVG Version: 6.00 Build 0)  -->
<svg version="1.1" id="Layer_1" xmlns="http://www.w3.org/2000/svg" xmlns:xlink="http://www.w3.org/1999/xlink" x="0px" y="0px"
	 viewBox="0 0 50.8 54" style="enable-background:new 0 0 50.8 54;" xml:space="preserve">
<style type="text/css">
	.st0{fill:#F20574;}
</style>
<path class="st0" d="M50,27C50,13.5,39,2.5,25.5,2.5C12,2.5,1,13.5,1,27s11,24.5,24.5,24.5C39,51.5,50,40.5,50,27z M22.5,43.2
	L9.8,30.4c-1.4-1.4-1.4-3.6,0-5c1.4-1.4,3.6-1.4,5,0l6.8,6.8V14.1c0-2,1.6-3.5,3.5-3.5c2,0,3.5,1.6,3.5,3.5l0,18.4l7.1-7.1
	c1.4-1.4,3.6-1.4,5,0c1.4,1.4,1.4,3.6,0,5L28.1,43.2c-0.8,0.8-1.8,1.1-2.8,1C24.3,44.2,23.3,43.9,22.5,43.2z"/>
</svg>
