<?xml version="1.0" encoding="utf-8"?>
<!-- Generator: Adobe Illustrator 25.2.2, SVG Export Plug-In . SVG Version: 6.00 Build 0)  -->
<svg version="1.1" id="Layer_1" xmlns="http://www.w3.org/2000/svg" xmlns:xlink="http://www.w3.org/1999/xlink" x="0px" y="0px"
	 viewBox="0 0 10.2 10.2" style="enable-background:new 0 0 10.2 10.2;" xml:space="preserve">
<style type="text/css">
	.st0{fill-rule:evenodd;clip-rule:evenodd;fill:#777777;}
	.st1{fill:#FFFFFF;}
</style>
<path class="st0" d="M5.1,10.2c2.8,0,5.1-2.3,5.1-5.1S7.9,0,5.1,0S0,2.3,0,5.1S2.3,10.2,5.1,10.2z"/>
<path class="st1" d="M6.3,6.9c0.2,0.2,0.2,0.6,0,0.8C6.1,8,5.8,8,5.5,7.7L3.3,5.5C3,5.2,3,4.9,3.3,4.7l2.3-2.3
	c0.2-0.2,0.6-0.2,0.8,0c0.2,0.2,0.2,0.6,0,0.8L4.5,5.1L6.3,6.9z"/>
</svg>
