<?xml version="1.0" encoding="utf-8"?>
<!-- Generator: Adobe Illustrator 25.2.2, SVG Export Plug-In . SVG Version: 6.00 Build 0)  -->
<svg version="1.1" id="Layer_1" xmlns="http://www.w3.org/2000/svg" xmlns:xlink="http://www.w3.org/1999/xlink" x="0px" y="0px"
	 viewBox="0 0 50.8 54" style="enable-background:new 0 0 50.8 54;" xml:space="preserve">
<style type="text/css">
	.st0{fill:#F20574;}
</style>
<path class="st0" d="M1,27c0,13.5,11,24.5,24.5,24.5C39,51.5,50,40.5,50,27S39,2.5,25.5,2.5C12,2.5,1,13.5,1,27z M28.5,10.8
	l12.8,12.8c1.4,1.4,1.4,3.6,0,5c-1.4,1.4-3.6,1.4-5,0l-6.8-6.8v18.1c0,2-1.6,3.5-3.5,3.5c-2,0-3.5-1.6-3.5-3.5l0-18.4l-7.1,7.1
	c-1.4,1.4-3.6,1.4-5,0c-1.4-1.4-1.4-3.6,0-5l12.8-12.8c0.8-0.8,1.8-1.1,2.8-1C26.7,9.8,27.7,10.1,28.5,10.8z"/>
</svg>
