<svg width="20" height="24" viewBox="0 0 20 24" fill="none" xmlns="http://www.w3.org/2000/svg">
<path fill-rule="evenodd" clip-rule="evenodd" d="M13.8601 1.27048C13.3001 2.39989 13.7201 3.81166 14.8401 4.37636C15.9601 4.94107 17.3601 4.51754 17.9201 3.24695C18.4801 2.11754 18.0601 0.846951 16.9401 0.282245C15.8201 -0.282461 14.4201 0.141068 13.8601 1.27048ZM7.28008 21.1764C6.02008 20.6117 4.90008 20.047 3.92008 19.3411C3.78008 20.6117 4.20008 21.7411 5.04008 22.447C6.58008 24.1411 9.10008 24.1411 10.7801 22.5881C10.5437 22.4987 10.301 22.4093 10.0547 22.3186C9.13436 21.9795 8.16365 21.6219 7.28008 21.1764Z" fill="white"/>
<path d="M19.1801 10.4469C18.0601 13.5528 17.5001 16.7999 17.7801 20.1881C18.0601 20.6116 18.0601 21.0351 17.9201 21.4587C17.2201 23.0116 12.6001 22.4469 7.70005 20.1881C2.80005 17.9293 -0.559948 14.6822 0.140052 13.1293C0.280052 12.7057 0.700052 12.4234 1.12005 12.4234C3.78005 10.4469 6.02005 8.04691 7.56005 5.08221C8.40005 3.24691 10.2201 1.83515 12.3201 1.69397C11.9001 3.52926 13.0201 5.36456 14.8401 5.78809C16.2401 6.07044 17.6401 5.50573 18.3401 4.37632C19.7401 6.07044 20.0201 8.47044 19.1801 10.4469Z" fill="white"/>
</svg>
