<svg width="22" height="24" viewBox="0 0 22 24" fill="none" xmlns="http://www.w3.org/2000/svg">
<path d="M2.36713 4.35386C2.36728 4.35371 2.36744 4.35355 2.01389 4C1.66033 3.64645 1.66052 3.64626 1.66071 3.64607L1.66227 3.64452L1.66533 3.6415L1.67478 3.63227C1.68257 3.62473 1.69333 3.61442 1.70707 3.60154C1.73455 3.57578 1.77395 3.5397 1.82526 3.49481C1.92787 3.40502 2.07824 3.27986 2.27639 3.13125C2.67262 2.83408 3.26053 2.44266 4.04028 2.05279C5.60143 1.27221 7.92751 0.5 11.0139 0.5C14.1003 0.5 16.4264 1.27221 17.9875 2.05279C18.6113 2.36468 19.1123 2.67755 19.4906 2.94238L19.3516 1.59501C19.3233 1.32033 19.523 1.07468 19.7977 1.04636C20.0724 1.01803 20.318 1.21774 20.3464 1.49242L20.6133 4.08052C20.627 4.21386 20.5867 4.34713 20.5013 4.45044C20.4158 4.55374 20.2925 4.61842 20.159 4.62996L17.6288 4.84859C17.3537 4.87237 17.1114 4.66861 17.0876 4.39349C17.0638 4.11838 17.2676 3.87608 17.5427 3.85231L18.8813 3.73664C18.5436 3.50259 18.0966 3.22536 17.5403 2.94721C16.1014 2.22779 13.9275 1.5 11.0139 1.5C8.10027 1.5 5.92635 2.22779 4.48749 2.94721C3.76725 3.30734 3.23016 3.66592 2.87639 3.93125C2.69954 4.06389 2.56865 4.17311 2.48377 4.24738C2.44133 4.28451 2.41041 4.31289 2.39101 4.33108L2.37057 4.35051L2.36713 4.35386Z" fill="#F20574"/>
<path fill-rule="evenodd" clip-rule="evenodd" d="M14 12C14 13.6569 12.6569 15 11 15C9.34315 15 8 13.6569 8 12C8 10.3431 9.34315 9 11 9C12.6569 9 14 10.3431 14 12ZM13 12C13 13.1046 12.1046 14 11 14C9.89543 14 9 13.1046 9 12C9 10.8954 9.89543 10 11 10C12.1046 10 13 10.8954 13 12Z" fill="#F20574"/>
<path fill-rule="evenodd" clip-rule="evenodd" d="M0 7V17H22V7H0ZM21 8H19.5457C19.6506 8.53597 19.9235 8.87381 20.2297 9.09423C20.4714 9.26828 20.7462 9.3768 21 9.43733V8ZM3.45685 8H18.5327C18.653 8.88977 19.0937 9.50861 19.6453 9.90577C20.0828 10.2207 20.5742 10.3861 21 10.4569V13.5327C20.1102 13.653 19.4914 14.0937 19.0942 14.6453C18.7793 15.0828 18.6139 15.5742 18.5431 16H3.45685C3.3861 15.5742 3.22072 15.0828 2.90577 14.6453C2.50861 14.0937 1.88977 13.653 1 13.5327V10.4673C1.88977 10.347 2.50861 9.90626 2.90577 9.35465C3.22072 8.91721 3.3861 8.42583 3.45685 8ZM19.9058 15.2297C20.1262 14.9235 20.464 14.6506 21 14.5457V16H19.5627C19.6232 15.7462 19.7317 15.4714 19.9058 15.2297ZM2.09423 15.2297C2.26828 15.4714 2.3768 15.7462 2.43733 16H1V14.5457C1.53597 14.6506 1.87381 14.9235 2.09423 15.2297ZM2.09423 8.77035C1.87381 9.07649 1.53597 9.3494 1 9.45433V8H2.43733C2.3768 8.25385 2.26828 8.52861 2.09423 8.77035Z" fill="#F20574"/>
<path d="M1.86557 22.9557C1.8939 23.2303 2.13954 23.43 2.41423 23.4017C2.68891 23.3734 2.88862 23.1277 2.86029 22.8531L2.72133 21.5057C3.09966 21.7705 3.60067 22.0834 4.22445 22.3953C5.78559 23.1759 8.11167 23.9481 11.1981 23.9481C14.2844 23.9481 16.6105 23.1759 18.1717 22.3953C18.9514 22.0054 19.5393 21.614 19.9356 21.3168C20.1337 21.1682 20.2841 21.0431 20.3867 20.9533C20.438 20.9084 20.4774 20.8723 20.5049 20.8465C20.5186 20.8337 20.5294 20.8233 20.5372 20.8158L20.5466 20.8066L20.5497 20.8036L20.5508 20.8025C20.551 20.8023 20.5516 20.8016 20.1981 20.4481C19.8445 20.0945 19.8447 20.0944 19.8448 20.0942L19.8414 20.0976L19.8209 20.117C19.8015 20.1352 19.7706 20.1636 19.7282 20.2007C19.6433 20.275 19.5124 20.3842 19.3356 20.5168C18.9818 20.7822 18.4447 21.1407 17.7244 21.5009C16.2856 22.2203 14.1117 22.9481 11.1981 22.9481C8.28444 22.9481 6.11052 22.2203 4.67166 21.5009C4.11537 21.2227 3.66834 20.9455 3.33065 20.7114L4.66922 20.5958C4.94434 20.572 5.1481 20.3297 5.12432 20.0546C5.10055 19.7795 4.85825 19.5757 4.58314 19.5995L2.05297 19.8181C1.91942 19.8297 1.7961 19.8943 1.71068 19.9976C1.62526 20.1009 1.5849 20.2342 1.59865 20.3676L1.86557 22.9557Z" fill="#F20574"/>
</svg>
