<svg width="24" height="24" viewBox="0 0 24 24" fill="none" xmlns="http://www.w3.org/2000/svg">
<path d="M3.5 4C3.5 2.61929 4.61929 1.5 6 1.5H20.5V23.5H6C4.61929 23.5 3.5 22.3807 3.5 21V4Z" stroke="#F20574"/>
<path d="M3.5 21C3.5 19.6193 4.61929 18.5 6 18.5H20.5V23.5H6C4.61929 23.5 3.5 22.3807 3.5 21Z" stroke="#F20574"/>
<path d="M7 20.5C6.72386 20.5 6.5 20.7239 6.5 21C6.5 21.2761 6.72386 21.5 7 21.5L7 20.5ZM20 20.5L7 20.5L7 21.5L20 21.5L20 20.5Z" fill="#F20574"/>
<path d="M13 4H15.5V4.5C15.5 5.60457 16.3954 6.5 17.5 6.5H18V9" stroke="#F20574"/>
<path d="M13 16H15.5V15.5C15.5 14.3954 16.3954 13.5 17.5 13.5H18V11" stroke="#F20574"/>
<path d="M11 4H8.5V4.5C8.5 5.60457 7.60457 6.5 6.5 6.5H6V9" stroke="#F20574"/>
<path d="M11 16H8.5V15.5C8.5 14.3954 7.60457 13.5 6.5 13.5H6V11" stroke="#F20574"/>
<circle cx="12" cy="10" r="3" stroke="#F20574"/>
<circle cx="12" cy="10" r="1" fill="#F20574"/>
<circle cx="18" cy="4" r="1" fill="#F20574"/>
<circle cx="18" cy="16" r="1" fill="#F20574"/>
<circle cx="6" cy="16" r="1" fill="#F20574"/>
<circle cx="6" cy="4" r="1" fill="#F20574"/>
</svg>
