<?xml version="1.0" encoding="utf-8"?>
<!-- Generator: Adobe Illustrator 24.0.3, SVG Export Plug-In . SVG Version: 6.00 Build 0)  -->
<svg version="1.1" id="Layer_1" xmlns="http://www.w3.org/2000/svg" xmlns:xlink="http://www.w3.org/1999/xlink" x="0px" y="0px"
	 viewBox="0 0 43.59 43.56" style="enable-background:new 0 0 43.59 43.56;" xml:space="preserve">
<style type="text/css">
	.st0{fill:#FFFFFF;}
</style>
<path class="st0" d="M42.07,1.69c2.04,2.04,2.03,5.34,0,7.38L9.1,42.03c-2.04,2.04-5.34,2.04-7.38,0l0,0
	c-2.04-2.04-2.04-5.34,0-7.38L34.69,1.69C36.72-0.34,40.03-0.35,42.07,1.69L42.07,1.69z"/>
<path class="st0" d="M1.72,1.69c-2.04,2.04-2.04,5.34,0,7.38l32.96,32.97c2.04,2.04,5.34,2.04,7.38,0l0,0
	c2.04-2.04,2.04-5.34,0-7.38L9.1,1.69C7.06-0.34,3.76-0.35,1.72,1.69L1.72,1.69z"/>
</svg>
