<?xml version="1.0" encoding="utf-8"?>
<!-- Generator: Adobe Illustrator 24.0.3, SVG Export Plug-In . SVG Version: 6.00 Build 0)  -->
<svg version="1.1" id="Ebene_1" xmlns="http://www.w3.org/2000/svg" xmlns:xlink="http://www.w3.org/1999/xlink" x="0px" y="0px"
	 viewBox="0 0 41.03 41.03" style="enable-background:new 0 0 41.03 41.03;" xml:space="preserve">
<style type="text/css">
	.st0{fill:#F20574;}
</style>
<path class="st0" d="M20.52,0C9.19,0,0,9.19,0,20.52s9.19,20.52,20.52,20.52c11.33,0,20.52-9.19,20.52-20.52S31.85,0,20.52,0
	 M30.84,23.59c-0.22,0.72-0.49,1.4-0.84,2.05l3.22,3.22l-4.35,4.35l-3.22-3.22c-0.65,0.35-1.33,0.63-2.05,0.84v4.56h-6.15v-4.56
	c-0.72-0.21-1.4-0.49-2.05-0.84l-3.22,3.22l-4.35-4.35l3.22-3.22c-0.35-0.65-0.63-1.33-0.84-2.05H5.64v-6.16h4.55
	c0.21-0.72,0.49-1.4,0.84-2.05l-3.22-3.22l4.35-4.35l3.22,3.22c0.65-0.35,1.33-0.63,2.05-0.84V5.64h6.16v4.56
	c0.72,0.21,1.4,0.49,2.05,0.84l3.22-3.22l4.35,4.35L30,15.4c0.35,0.65,0.63,1.33,0.84,2.05h4.55v6.16L30.84,23.59L30.84,23.59z"/>
<path d="M20.52,12.31c-4.53,0-8.21,3.68-8.21,8.21c0,4.53,3.67,8.21,8.21,8.21c4.53,0,8.21-3.68,8.21-8.21
	C28.73,15.98,25.05,12.31,20.52,12.31"/>
<path class="st0" d="M20.52,12.31c-4.53,0-8.21,3.68-8.21,8.21c0,4.53,3.67,8.21,8.21,8.21c4.53,0,8.21-3.68,8.21-8.21
	C28.73,15.98,25.05,12.31,20.52,12.31"/>
</svg>
