<svg width="24" height="24" viewBox="0 0 24 24" fill="none" xmlns="http://www.w3.org/2000/svg">
<path fill-rule="evenodd" clip-rule="evenodd" d="M11.5091 1.92991C10.7725 1.04592 9.62024 0.5 8 0.5C7.72386 0.5 7.5 0.723858 7.5 1C7.5 2.16262 8.07627 3.28338 8.89645 4.10355C9.24919 4.4563 9.65754 4.76393 10.1009 5H4V9H5.5V13H6.5V9H11V12H13V9H17.5V12H18.5V9H20V5H13.8991C14.3425 4.76393 14.7508 4.4563 15.1036 4.10355C15.9237 3.28338 16.5 2.16262 16.5 1C16.5 0.723858 16.2761 0.5 16 0.5C14.3798 0.5 13.2275 1.04592 12.4909 1.92991C12.2951 2.16483 12.1327 2.4188 12 2.68559C11.8673 2.4188 11.7049 2.16483 11.5091 1.92991ZM11.4709 4.44585C10.8033 4.3114 10.1411 3.93398 9.60355 3.39645C9.06529 2.85818 8.68757 2.19491 8.55361 1.52638C9.61268 1.63156 10.3001 2.04113 10.7409 2.57009C11.161 3.07417 11.3938 3.73096 11.4709 4.44585ZM5 8V6H11V8H5ZM13 8V6H19V8H13ZM12.5291 4.44585C13.1967 4.3114 13.8589 3.93398 14.3964 3.39645C14.9347 2.85818 15.3124 2.19491 15.4464 1.52638C14.3873 1.63156 13.6999 2.04113 13.2591 2.57009C12.839 3.07417 12.6062 3.73096 12.5291 4.44585Z" fill="#F20574"/>
<path d="M21.642 13.3491C20.8873 12.6026 19.8795 12.8339 19.3567 13.3566L15.3598 17.3536C15.1645 17.5488 14.848 17.5488 14.6527 17.3536C14.4574 17.1583 14.4574 16.8417 14.6527 16.6464L18.6496 12.6495C19.4585 11.8407 21.1123 11.4051 22.3567 12.6495L22.3639 12.6568C23.5956 13.9 23.1601 15.547 22.3536 16.3536L16.2135 22.5H5.20711L3.85355 23.8536C3.65829 24.0488 3.34171 24.0488 3.14645 23.8536C2.95118 23.6583 2.95118 23.3417 3.14645 23.1464L4.79289 21.5H15.799L21.6463 15.6466C22.1708 15.1221 22.402 14.1091 21.6464 13.3536L21.642 13.3491Z" fill="#F20574"/>
<path d="M6.65685 14.5C5.7286 14.5 4.83836 14.8687 4.18198 15.5251L1.35355 18.3536C1.15829 18.5488 0.841709 18.5488 0.646447 18.3536C0.451184 18.1583 0.451184 17.8417 0.646447 17.6464L3.47488 14.818C4.31879 13.9741 5.46338 13.5 6.65685 13.5H12C12.4133 13.5 13.0222 13.6199 13.5422 13.9942C14.0876 14.3869 14.5 15.037 14.5 16C14.5 16.963 14.0876 17.6131 13.5422 18.0058C13.0222 18.3801 12.4133 18.5 12 18.5H8C7.72386 18.5 7.5 18.2761 7.5 18C7.5 17.7239 7.72386 17.5 8 17.5H12C12.2533 17.5 12.6444 17.4199 12.9578 17.1942C13.2458 16.9869 13.5 16.637 13.5 16C13.5 15.363 13.2458 15.0131 12.9578 14.8058C12.6444 14.5801 12.2533 14.5 12 14.5H6.65685Z" fill="#F20574"/>
</svg>
