<?xml version="1.0" encoding="utf-8"?>
<!-- Generator: Adobe Illustrator 24.0.3, SVG Export Plug-In . SVG Version: 6.00 Build 0)  -->
<svg version="1.1" id="Ebene_1" xmlns="http://www.w3.org/2000/svg" xmlns:xlink="http://www.w3.org/1999/xlink" x="0px" y="0px"
	 viewBox="0 0 47.84 47.84" style="enable-background:new 0 0 47.84 47.84;" xml:space="preserve">
<style type="text/css">
	.st0{fill:#F20574;}
</style>
<path class="st0" d="M23.92,0C10.71,0,0,10.71,0,23.92s10.71,23.92,23.92,23.92s23.92-10.71,23.92-23.92S37.13,0,23.92,0
	 M26.25,40.52h-4.66v-4.66h4.66V40.52z M27.93,25.58c-1.83,1.54-1.88,5.11-1.88,5.11h-4.62c0-4.34,2.26-6.94,3.61-8.67
	s3.76-2.89,3.76-5.49c0-2.26-1.35-4.58-5.2-4.58c-4.1,0-4.82,4.99-4.82,4.99h-4.72c-0.29-5.36,4.05-9.96,10.31-9.96
	c6.21,0,9.44,5.11,9.44,9.25C33.81,21.15,29.76,24.04,27.93,25.58"/>
</svg>
