<svg width="24" height="23" viewBox="0 0 24 23" fill="none" xmlns="http://www.w3.org/2000/svg">
<path fill-rule="evenodd" clip-rule="evenodd" d="M11.9996 11.0003C13.1042 11.0003 13.9996 10.1049 13.9996 9.00029C13.9996 7.89572 13.1042 7.00029 11.9996 7.00029C10.895 7.00029 9.99959 7.89572 9.99959 9.00029C9.99959 10.1049 10.895 11.0003 11.9996 11.0003ZM11.9996 10.0003C12.5519 10.0003 12.9996 9.55258 12.9996 9.00029C12.9996 8.44801 12.5519 8.00029 11.9996 8.00029C11.4473 8.00029 10.9996 8.44801 10.9996 9.00029C10.9996 9.55258 11.4473 10.0003 11.9996 10.0003Z" fill="#F20574"/>
<path fill-rule="evenodd" clip-rule="evenodd" d="M-0.046875 8.50246C3.80593 8.14286 7.6942 6.17263 11.1841 3.55563C10.307 2.8522 9.46279 2.11656 8.65843 1.36582L9.34075 0.634766C10.1902 1.42757 11.0793 2.19783 11.9996 2.92687C12.9199 2.19783 13.809 1.42757 14.6584 0.634766L15.3407 1.36582C14.5364 2.11656 13.6922 2.8522 12.8151 3.55563C16.305 6.17263 20.1933 8.14286 24.0461 8.50246L23.9531 9.49813C22.9645 9.40586 21.9779 9.21502 20.9996 8.94078V22.0003H23.9996V23.0003H-0.000410274V22.0003H2.99959V8.94078C2.02128 9.21502 1.0347 9.40586 0.0460545 9.49813L-0.046875 8.50246ZM3.99959 8.63096V10.0003H4.99959V11.0003H3.99959V12.0003H4.99959V13.0003H3.99959V14.0003H4.99959V15.0003H3.99959V16.0003H4.99959V17.0003H3.99959V18.0003H4.99959V19.0003H3.99959V20.0003H4.99959V21.0003H3.99959V22.0003H8.49959V16.0003C8.49959 14.0673 10.0666 12.5003 11.9996 12.5003C13.9326 12.5003 15.4996 14.0673 15.4996 16.0003V22.0003H19.9996V21.0003H18.9996V20.0003H19.9996V19.0003H18.9996V18.0003H19.9996V17.0003H18.9996V16.0003H19.9996V15.0003H18.9996V14.0003H19.9996V13.0003H18.9996V12.0003H19.9996V11.0003H18.9996V10.0003H19.9996V8.63096C17.197 7.68089 14.4807 6.0804 11.9996 4.19284C9.51844 6.0804 6.8022 7.68089 3.99959 8.63096ZM14.4996 22.0003V16.0003C14.4996 14.6196 13.3803 13.5003 11.9996 13.5003C10.6189 13.5003 9.49959 14.6196 9.49959 16.0003V22.0003H14.4996Z" fill="#F20574"/>
</svg>
