<?xml version="1.0" encoding="utf-8"?>
<!-- Generator: Adobe Illustrator 24.0.3, SVG Export Plug-In . SVG Version: 6.00 Build 0)  -->
<svg version="1.1" id="Layer_1" xmlns="http://www.w3.org/2000/svg" xmlns:xlink="http://www.w3.org/1999/xlink" x="0px" y="0px"
	 viewBox="0 0 24 24" style="enable-background:new 0 0 24 24;" xml:space="preserve">
<style type="text/css">
	.st0{fill:#F20574;}
</style>
<path class="st0" d="M12.01,0.15c-6.55,0-11.86,5.31-11.86,11.86c0,6.55,5.31,11.86,11.86,11.86c6.55,0,11.86-5.31,11.86-11.86
	C23.87,5.46,18.56,0.15,12.01,0.15z M12.01,22.35c-5.71,0-10.34-4.63-10.34-10.34S6.3,1.66,12.01,1.66
	c5.71,0,10.34,4.63,10.34,10.34S17.72,22.35,12.01,22.35z"/>
<circle class="st0" cx="13.87" cy="7.21" r="1.27"/>
<path class="st0" d="M9.74,11c0,0-0.03,0.66,0.24,0.77c0,0,1.29-1.15,1.67-0.94c0.38,0.21-0.49,2.23-1.19,3.77s-0.8,2.55-0.42,2.96
	c0.38,0.42,1.39,0.38,2.2,0c0.8-0.38,2.02-1.39,2.02-1.39s0.29-0.63-0.4-0.59c0,0-2,1.81-1.87,0.59c0.14-1.22,1.68-3.45,1.87-4.81
	S13.56,9.4,12.61,9.5C11.65,9.61,9.74,11,9.74,11z"/>
</svg>
