<?xml version="1.0" encoding="utf-8"?>
<!-- Generator: Adobe Illustrator 25.2.2, SVG Export Plug-In . SVG Version: 6.00 Build 0)  -->
<svg version="1.1" id="Layer_1" xmlns="http://www.w3.org/2000/svg" xmlns:xlink="http://www.w3.org/1999/xlink" x="0px" y="0px"
	 viewBox="0 0 54.2 54" style="enable-background:new 0 0 54.2 54;" xml:space="preserve">
<style type="text/css">
	.st0{fill:#F20574;}
</style>
<path class="st0" d="M53.6,8.7c0-2.9-2.3-5.2-5.2-5.2l-30.1,0c-2.9,0-5.2,2.3-5.2,5.2l0,0c0,2.9,2.3,5.2,5.2,5.2h30.1
	C51.3,13.9,53.6,11.5,53.6,8.7L53.6,8.7z"/>
<path class="st0" d="M53.6,26.8c0-2.9-2.3-5.2-5.2-5.2l-30.1,0c-2.9,0-5.2,2.3-5.2,5.2l0,0c0,2.9,2.3,5.2,5.2,5.2h30.1
	C51.3,32,53.6,29.7,53.6,26.8L53.6,26.8z"/>
<path class="st0" d="M53.6,44.9c0-2.9-2.3-5.2-5.2-5.2l-30.1,0c-2.9,0-5.2,2.3-5.2,5.2l0,0c0,2.9,2.3,5.2,5.2,5.2h30.1
	C51.3,50.1,53.6,47.8,53.6,44.9L53.6,44.9z"/>
<path class="st0" d="M11.4,8.7c0-2.9-2.3-5.2-5.2-5.2l0,0C3.3,3.4,1,5.8,1,8.7l0,0c0,2.9,2.3,5.2,5.2,5.2h0
	C9.1,13.9,11.4,11.5,11.4,8.7L11.4,8.7z"/>
<path class="st0" d="M11.4,26.8c0-2.9-2.3-5.2-5.2-5.2l0,0c-2.9,0-5.2,2.3-5.2,5.2l0,0C1,29.7,3.3,32,6.2,32h0
	C9.1,32,11.4,29.7,11.4,26.8L11.4,26.8z"/>
<path class="st0" d="M11.4,44.9c0-2.9-2.3-5.2-5.2-5.2l0,0C3.3,39.7,1,42,1,44.9l0,0c0,2.9,2.3,5.2,5.2,5.2h0
	C9.1,50.1,11.4,47.8,11.4,44.9L11.4,44.9z"/>
</svg>
