<?xml version="1.0" encoding="utf-8"?>
<!-- Generator: Adobe Illustrator 25.2.2, SVG Export Plug-In . SVG Version: 6.00 Build 0)  -->
<svg version="1.1" id="Layer_1" xmlns="http://www.w3.org/2000/svg" xmlns:xlink="http://www.w3.org/1999/xlink" x="0px" y="0px"
	 viewBox="0 0 36 54" style="enable-background:new 0 0 36 54;" xml:space="preserve">
<style type="text/css">
	.st0{fill:#FFC414;}
</style>
<path class="st0" d="M30,22.4V12.1C30,5.4,24.6,0,17.9,0S5.9,5.4,5.9,12.1v10.3H0V54h36V22.4H30z M20,39.9v5.2h-4v-5.2
	c-1.2-0.8-2-2.2-2-3.9c0-2.5,1.8-4.5,4-4.5c2.2,0,4,2,4,4.5C22,37.6,21.2,39.1,20,39.9z M26.2,22.4H9.7v-9.9c0-4.5,3.7-8.2,8.2-8.2
	s8.2,3.7,8.2,8.2V22.4z"/>
</svg>
