<svg width="24" height="22" viewBox="0 0 24 22" fill="none" xmlns="http://www.w3.org/2000/svg">
<path d="M16.7237 0.552823C16.9707 0.676338 17.0708 0.976682 16.9473 1.22366L16.4472 2.22363C16.3237 2.47061 16.0233 2.5707 15.7763 2.44718C15.5294 2.32367 15.4293 2.02332 15.5528 1.77634L16.0529 0.776374C16.1764 0.529395 16.4767 0.429308 16.7237 0.552823Z" fill="#F20574"/>
<path d="M20.2975 3.58747C20.5184 3.42179 20.5632 3.10839 20.3975 2.88747C20.2318 2.66656 19.9184 2.62178 19.6975 2.78746L17.6974 4.28745C17.4765 4.45313 17.4317 4.76653 17.5974 4.98745C17.7631 5.20836 18.0765 5.25314 18.2974 5.08746L20.2975 3.58747Z" fill="#F20574"/>
<path d="M23.1323 7.23218C23.3986 7.1591 23.5553 6.88398 23.4822 6.61769C23.4091 6.35139 23.134 6.19475 22.8677 6.26783L18.8008 7.38388C18.5345 7.45696 18.3779 7.73208 18.4509 7.99838C18.524 8.26468 18.7991 8.42131 19.0654 8.34823L23.1323 7.23218Z" fill="#F20574"/>
<path d="M20.4174 15.5357C20.677 15.6299 20.9638 15.4958 21.058 15.2363C21.1522 14.9767 21.0181 14.6899 20.7585 14.5957L19.7076 14.2143C19.448 14.1201 19.1612 14.2541 19.067 14.5137C18.9728 14.7733 19.1068 15.0601 19.3664 15.1543L20.4174 15.5357Z" fill="#F20574"/>
<path d="M22.4903 11.5981C22.4362 11.8689 22.1728 12.0445 21.902 11.9903L19.402 11.4903C19.1313 11.4361 18.9557 11.1727 19.0098 10.902C19.064 10.6312 19.3274 10.4556 19.5982 10.5097L22.0981 11.0097C22.3689 11.0639 22.5445 11.3273 22.4903 11.5981Z" fill="#F20574"/>
<path fill-rule="evenodd" clip-rule="evenodd" d="M13.3536 4.85353C13.5489 4.65826 13.5489 4.34168 13.3536 4.14642C13.1583 3.95116 12.8418 3.95116 12.6465 4.14642C12.2491 4.54385 12.0955 5.19058 12.1064 6.03446C12.1176 6.89899 12.3035 8.08555 12.7161 9.69409C13.1228 11.2797 13.4634 12.3368 13.9219 13.0597C14.411 13.8309 15.0178 14.1996 15.8419 14.4743C16.1039 14.5616 16.3871 14.4201 16.4744 14.1581C16.5617 13.8961 16.4201 13.613 16.1582 13.5256C15.4823 13.3004 15.0978 13.0466 14.7663 12.5241C14.5747 12.2219 14.3979 11.8254 14.213 11.2818C14.9552 10.8433 15.3516 9.95284 15.1266 9.07582C14.9026 8.20235 14.1319 7.61381 13.2745 7.58223C13.1631 6.94382 13.1116 6.43058 13.1063 6.02148C13.0963 5.25172 13.251 4.9561 13.3536 4.85353ZM14.158 9.32427C14.2474 9.67317 14.1392 10.0263 13.9032 10.2652C13.8332 10.0142 13.7607 9.74179 13.6848 9.44563C13.6104 9.15556 13.5441 8.88168 13.4854 8.62318C13.8055 8.71987 14.0688 8.97669 14.158 9.32427Z" fill="#F20574"/>
<path fill-rule="evenodd" clip-rule="evenodd" d="M4.03233 15.7631C2.95096 16.0405 0.815853 15.2051 0.224146 12.8982C-0.367561 10.5913 1.10188 8.83141 2.18324 8.55405C4.70643 7.90687 8.3091 6.67547 9.74343 5.07824C10.3626 4.38874 10.7889 3.84035 11.1262 3.40642C11.7656 2.58383 12.0853 2.17254 12.7933 1.99097C13.8746 1.7136 16.2316 3.41406 17.526 8.46043C18.8203 13.5068 17.5728 16.1318 16.4914 16.4092C15.7835 16.5907 15.3053 16.3841 14.3489 15.9708C13.8444 15.7528 13.2068 15.4773 12.3322 15.171C10.3061 14.4613 6.55551 15.116 4.03233 15.7631ZM3.78388 14.7945C3.57701 14.8476 3.05301 14.8119 2.47315 14.4509C1.93218 14.1141 1.42 13.5356 1.19279 12.6498C0.965583 11.764 1.1361 11.0104 1.44817 10.4548C1.78269 9.85922 2.22483 9.57575 2.43169 9.52269C3.08905 9.35409 3.82117 9.14604 4.57331 8.90159C4.4346 11.136 5.26216 13.1349 5.97335 14.3056C5.19158 14.4539 4.44499 14.6249 3.78388 14.7945ZM7.04463 14.1214C7.45062 14.0592 7.85983 14.0056 8.26575 13.9636C9.79953 13.8049 11.4303 13.7955 12.6627 14.2272C13.5706 14.5452 14.2843 14.8532 14.7981 15.0749C15.0068 15.165 15.1825 15.2408 15.3248 15.2972C15.8179 15.4929 15.9919 15.5034 16.2323 15.4432L16.2342 15.4421C16.249 15.4336 16.3378 15.3826 16.4658 15.1955C16.6248 14.9628 16.7997 14.5791 16.9221 14.0122C17.1663 12.8809 17.1771 11.1253 16.5573 8.70888C15.9375 6.29244 15.083 4.75885 14.3245 3.88471C13.9444 3.44667 13.6063 3.19457 13.3549 3.06719C13.1528 2.96476 13.0503 2.96277 13.0332 2.96244L13.031 2.96238C12.7914 3.02539 12.6439 3.11828 12.3058 3.52715C12.2083 3.64509 12.0908 3.79606 11.9513 3.9754C11.6077 4.417 11.1302 5.0307 10.4875 5.74638C9.61494 6.718 8.18102 7.49471 6.76021 8.09384C6.38306 8.25288 5.99738 8.40322 5.6104 8.54446C5.31385 10.932 6.34775 13.1187 7.04463 14.1214Z" fill="#F20574"/>
<path fill-rule="evenodd" clip-rule="evenodd" d="M9.28233 18.2582L7.91425 15.92L4.5777 16.3916C4.70102 16.6024 4.88055 16.9373 5.08695 17.3296C5.1976 17.5398 5.31597 17.7665 5.43756 17.9994C5.9278 18.9383 6.47023 19.9772 6.76851 20.4397C7.27877 21.2308 7.85924 21.6966 8.9406 21.4192L10.022 21.1419C10.7429 20.957 11.3713 20.4116 11.094 19.3302C10.8166 18.2489 10.0032 18.0733 9.28233 18.2582ZM6.13825 17.181L6.33003 17.5481C6.39954 17.6812 6.46945 17.8151 6.53876 17.9476C6.97523 18.7815 7.38438 19.5496 7.60888 19.8977C7.83 20.2405 7.98811 20.3833 8.10528 20.4448C8.18555 20.4869 8.33771 20.5415 8.69215 20.4506L9.77352 20.1732C9.99006 20.1177 10.0884 20.0328 10.1213 19.9872C10.1348 19.9685 10.1488 19.9424 10.1561 19.8939C10.164 19.8417 10.1671 19.7415 10.1253 19.5787C10.0836 19.4159 10.0327 19.3296 10.0006 19.2876C9.97082 19.2486 9.94601 19.2325 9.92524 19.2226C9.87444 19.1984 9.74733 19.1713 9.53078 19.2269L8.80013 19.4143L7.38992 17.004L6.13825 17.181Z" fill="#F20574"/>
</svg>
