<svg width="28" height="28" viewBox="0 0 28 28" fill="none" xmlns="http://www.w3.org/2000/svg">
<path d="M12.4019 0.679466C13.2747 -0.226489 14.7253 -0.226489 15.5981 0.679466L16.2127 1.31739C16.7833 1.90966 17.6347 2.13779 18.425 1.91017L19.2762 1.66502C20.4851 1.31685 21.7414 2.04215 22.0443 3.26314L22.2576 4.1229C22.4556 4.92113 23.0789 5.54439 23.8771 5.74242L24.7369 5.95571C25.9578 6.25863 26.6831 7.51488 26.335 8.72375L26.0898 9.57497C25.8622 10.3653 26.0903 11.2167 26.6826 11.7873L27.3205 12.4019C28.2265 13.2747 28.2265 14.7253 27.3205 15.5981L26.6826 16.2127C26.0903 16.7833 25.8622 17.6347 26.0898 18.425L26.335 19.2762C26.6831 20.4851 25.9579 21.7414 24.7369 22.0443L23.8771 22.2576C23.0789 22.4556 22.4556 23.0789 22.2576 23.8771L22.0443 24.7369C21.7414 25.9578 20.4851 26.6831 19.2762 26.335L18.425 26.0898C17.6347 25.8622 16.7833 26.0903 16.2127 26.6826L15.5981 27.3205C14.7253 28.2265 13.2747 28.2265 12.4019 27.3205L11.7873 26.6826C11.2167 26.0903 10.3653 25.8622 9.57497 26.0898L8.72375 26.335C7.51488 26.6831 6.25863 25.9579 5.95571 24.7369L5.74242 23.8771C5.54439 23.0789 4.92113 22.4556 4.1229 22.2576L3.26314 22.0443C2.04215 21.7414 1.31685 20.4851 1.66502 19.2762L1.91018 18.425C2.13779 17.6347 1.90966 16.7833 1.31739 16.2127L0.679466 15.5981C-0.226489 14.7253 -0.226489 13.2747 0.679466 12.4019L1.31739 11.7873C1.90966 11.2167 2.13779 10.3653 1.91017 9.57497L1.66502 8.72375C1.31685 7.51488 2.04215 6.25863 3.26314 5.95571L4.1229 5.74242C4.92113 5.54439 5.54439 4.92113 5.74242 4.1229L5.95571 3.26314C6.25863 2.04215 7.51488 1.31685 8.72375 1.66502L9.57497 1.91018C10.3653 2.13779 11.2167 1.90966 11.7873 1.31739L12.4019 0.679466Z" fill="#F20574"/>
<path d="M12.4019 0.679466C13.2747 -0.226489 14.7253 -0.226489 15.5981 0.679466L16.2127 1.31739C16.7833 1.90966 17.6347 2.13779 18.425 1.91017L19.2762 1.66502C20.4851 1.31685 21.7414 2.04215 22.0443 3.26314L22.2576 4.1229C22.4556 4.92113 23.0789 5.54439 23.8771 5.74242L24.7369 5.95571C25.9578 6.25863 26.6831 7.51488 26.335 8.72375L26.0898 9.57497C25.8622 10.3653 26.0903 11.2167 26.6826 11.7873L27.3205 12.4019C28.2265 13.2747 28.2265 14.7253 27.3205 15.5981L26.6826 16.2127C26.0903 16.7833 25.8622 17.6347 26.0898 18.425L26.335 19.2762C26.6831 20.4851 25.9579 21.7414 24.7369 22.0443L23.8771 22.2576C23.0789 22.4556 22.4556 23.0789 22.2576 23.8771L22.0443 24.7369C21.7414 25.9578 20.4851 26.6831 19.2762 26.335L18.425 26.0898C17.6347 25.8622 16.7833 26.0903 16.2127 26.6826L15.5981 27.3205C14.7253 28.2265 13.2747 28.2265 12.4019 27.3205L11.7873 26.6826C11.2167 26.0903 10.3653 25.8622 9.57497 26.0898L8.72375 26.335C7.51488 26.6831 6.25863 25.9579 5.95571 24.7369L5.74242 23.8771C5.54439 23.0789 4.92113 22.4556 4.1229 22.2576L3.26314 22.0443C2.04215 21.7414 1.31685 20.4851 1.66502 19.2762L1.91018 18.425C2.13779 17.6347 1.90966 16.7833 1.31739 16.2127L0.679466 15.5981C-0.226489 14.7253 -0.226489 13.2747 0.679466 12.4019L1.31739 11.7873C1.90966 11.2167 2.13779 10.3653 1.91017 9.57497L1.66502 8.72375C1.31685 7.51488 2.04215 6.25863 3.26314 5.95571L4.1229 5.74242C4.92113 5.54439 5.54439 4.92113 5.74242 4.1229L5.95571 3.26314C6.25863 2.04215 7.51488 1.31685 8.72375 1.66502L9.57497 1.91018C10.3653 2.13779 11.2167 1.90966 11.7873 1.31739L12.4019 0.679466Z" fill="url(#paint0_radial)"/>
<path d="M12.6452 12.0076C12.9194 11.3511 13.1129 10.771 13.2258 10.2977H13.8871V8.40458H11.1935V7H8.80645V8.40458H6.51613V10.2977H7.20968C7.3871 10.8626 7.54839 11.4275 7.67742 12.0076H6.43548V13.8244H8.80645V14.4809H6.43548V16.374H8.14516C7.58064 17.229 6.87097 18.0076 6 18.6947L7.20968 20.4656C7.77419 19.916 8.32258 19.2595 8.80645 18.4962V21H11.1935V18.6947C11.6129 19.1221 11.9839 19.5038 12.2903 19.8397L12.629 19.458L14.0968 20.9084C14.8065 19.9924 15.3387 19 15.7258 17.9466C16.1129 16.8779 16.3871 15.4885 16.5484 13.7939H17.5484V20.8626H19.8871V13.7939H21V11.7328H16.6935C16.7097 11.3664 16.7419 10.8015 16.7581 10.0534C18.2903 9.87023 19.6613 9.58015 20.9194 9.19847L20.2903 7.1374C18.7581 7.65649 16.8387 8.00763 14.5161 8.19084C14.5161 11.0153 14.4194 13.1069 14.2258 14.4962C14.0323 15.8702 13.6935 17.0458 13.1774 18.0229C12.5 17.3969 11.8548 16.8626 11.2419 16.374H13.629V14.4809H11.1935V13.8244H13.8387V12.0076H12.6452ZM9.74194 12.0076C9.66129 11.626 9.5 11.0611 9.29032 10.2977H11.129C10.9677 10.8473 10.7581 11.4122 10.5323 12.0076H9.74194Z" fill="white"/>
<defs>
<radialGradient id="paint0_radial" cx="0" cy="0" r="1" gradientUnits="userSpaceOnUse" gradientTransform="translate(33.9724 -5.97245) rotate(131.468) scale(31.8364)">
<stop stop-color="#8405D9" stop-opacity="0.62"/>
<stop offset="1" stop-color="#8405D9" stop-opacity="0"/>
</radialGradient>
</defs>
</svg>
