<?xml version="1.0" encoding="utf-8"?>
<!-- Generator: Adobe Illustrator 24.0.3, SVG Export Plug-In . SVG Version: 6.00 Build 0)  -->
<svg version="1.1" id="Layer_1" xmlns="http://www.w3.org/2000/svg" xmlns:xlink="http://www.w3.org/1999/xlink" x="0px" y="0px"
	 viewBox="0 0 50.5 54" style="enable-background:new 0 0 50.5 54;" xml:space="preserve">
<style type="text/css">
	.st0{fill:none;stroke:#F20574;stroke-width:2;}
</style>
<path class="st0" d="M22.94,4.24c1.26-1.31,3.36-1.31,4.63,0l1.09,1.13c1.2,1.25,3,1.73,4.66,1.25l1.51-0.44
	c1.75-0.5,3.57,0.55,4.01,2.31l0.38,1.53c0.42,1.68,1.73,3,3.41,3.41l1.53,0.38c1.77,0.44,2.82,2.26,2.31,4.01l-0.44,1.51
	c-0.48,1.67,0,3.46,1.25,4.66l1.13,1.09c1.31,1.26,1.31,3.36,0,4.63l-1.13,1.09c-1.25,1.2-1.73,3-1.25,4.66L46.48,37
	c0.5,1.75-0.55,3.57-2.31,4.01l-1.53,0.38c-1.68,0.42-3,1.73-3.41,3.41l-0.38,1.53c-0.44,1.77-2.26,2.82-4.01,2.31l-1.51-0.44
	c-1.67-0.48-3.46,0-4.66,1.25l-1.09,1.13c-1.26,1.31-3.36,1.31-4.63,0l-1.09-1.13c-1.2-1.25-3-1.73-4.66-1.25l-1.51,0.44
	c-1.75,0.5-3.57-0.55-4.01-2.31l-0.38-1.53c-0.42-1.68-1.73-3-3.41-3.41l-1.53-0.38C4.57,40.57,3.52,38.76,4.02,37l0.44-1.51
	c0.48-1.67,0-3.46-1.25-4.66l-1.13-1.09c-1.31-1.26-1.31-3.36,0-4.63l1.13-1.09c1.25-1.2,1.73-3,1.25-4.66l-0.44-1.51
	c-0.5-1.75,0.55-3.57,2.31-4.01l1.53-0.38c1.68-0.42,3-1.73,3.41-3.41l0.38-1.53c0.44-1.77,2.26-2.82,4.01-2.31l1.51,0.44
	c1.67,0.48,3.46,0,4.66-1.25L22.94,4.24z"/>
<path class="st0" d="M10.99,18.71h3.79 M26.14,18.71h-3.79 M14.77,18.71l3.79,7.47 M14.77,18.71h3.79 M18.56,26.18l3.79-7.47
	 M18.56,26.18h7.58 M18.56,26.18h-7.58 M18.56,26.18v4.98 M22.35,18.71h-3.79 M18.56,39.87v-8.71 M13.51,31.15h5.05 M23.61,31.15
	h-5.05 M18.56,31.15l-7.58,7.47 M18.56,31.15l5.05,4.98 M18.56,18.71v-3.73 M38.77,17.46c-2.02,1-7.16,1.24-8.84,1.24
	c0,1.92,0,4.22-0.15,6.74 M27.4,38.62c1.55-4.59,2.15-9.17,2.38-13.18 M29.78,25.44h5.95 M40.03,25.44h-4.3 M35.73,25.44v14.42"/>
</svg>
