<svg width="24" height="24" viewBox="0 0 24 24" fill="none" xmlns="http://www.w3.org/2000/svg">
<path fill-rule="evenodd" clip-rule="evenodd" d="M12 12.8C13.3104 12.8 14.8 11.3624 14.8 9C14.8 7.5685 14.7121 6.65228 14.3714 6.07204C14.1325 5.66499 13.6268 5.2 12 5.2C10.3732 5.2 9.86754 5.66499 9.62855 6.07204C9.28788 6.65228 9.2 7.5685 9.2 9C9.2 11.3624 10.6896 12.8 12 12.8ZM12 14C14.2091 14 16 11.7614 16 9C16 6.23858 15.7501 4 12 4C8.24994 4 8 6.23858 8 9C8 11.7614 9.79086 14 12 14Z" fill="#F20574"/>
<path fill-rule="evenodd" clip-rule="evenodd" d="M12 22.8C17.9647 22.8 22.8 17.9647 22.8 12C22.8 6.03532 17.9647 1.2 12 1.2C6.03532 1.2 1.2 6.03532 1.2 12C1.2 17.9647 6.03532 22.8 12 22.8ZM12 24C18.6274 24 24 18.6274 24 12C24 5.37258 18.6274 0 12 0C5.37258 0 0 5.37258 0 12C0 18.6274 5.37258 24 12 24Z" fill="#F20574"/>
<path fill-rule="evenodd" clip-rule="evenodd" d="M8.30391 14.3742L8.49923 14.6672C8.96493 15.3657 9.39358 15.776 9.89333 16.0258C10.4 16.2792 11.044 16.4 12 16.4C12.956 16.4 13.6 16.2792 14.1067 16.0258C14.6064 15.776 15.0351 15.3657 15.5008 14.6672L15.6961 14.3742L16.0471 14.4019C16.9696 14.4745 17.8729 14.6987 18.7936 15.3636C19.6973 16.0163 20.5752 17.063 21.5197 18.7002L20.4803 19.2998C19.5786 17.737 18.8027 16.8504 18.091 16.3364C17.4994 15.9091 16.9231 15.7182 16.2895 15.6334C15.814 16.2834 15.2965 16.7726 14.6433 17.0992C13.9 17.4708 13.044 17.6 12 17.6C10.956 17.6 10.1 17.4708 9.35667 17.0992C8.70355 16.7726 8.186 16.2834 7.71045 15.6334C7.07694 15.7182 6.50064 15.9091 5.90899 16.3364C5.19729 16.8504 4.42136 17.737 3.51971 19.2998L2.48029 18.7002C3.42479 17.063 4.30271 16.0163 5.2064 15.3636C6.12707 14.6987 7.03044 14.4745 7.95287 14.4019L8.30391 14.3742Z" fill="#F20574"/>
</svg>
