<?xml version="1.0" encoding="utf-8"?>
<!-- Generator: Adobe Illustrator 24.0.3, SVG Export Plug-In . SVG Version: 6.00 Build 0)  -->
<svg version="1.1" id="Layer_1" xmlns="http://www.w3.org/2000/svg" xmlns:xlink="http://www.w3.org/1999/xlink" x="0px" y="0px"
	 viewBox="0 0 52.8 54" style="enable-background:new 0 0 52.8 54;" xml:space="preserve">
<style type="text/css">
	.st0{fill:#FFFFFF;}
</style>
<path class="st0" d="M48.9,46.8L34.7,32.7l-6.8,6.8l14.2,14.1L48.9,46.8z"/>
<path class="st0" d="M22.8,1.2C10.7,1.2,1,11,1,23c0,12,9.7,21.8,21.7,21.8S44.5,35,44.5,23C44.5,11,34.8,1.2,22.8,1.2z M22.8,37.3
	c-7.9,0-14.4-6.4-14.4-14.4c0-7.9,6.4-14.4,14.4-14.4c7.9,0,14.4,6.4,14.4,14.4C37.1,30.9,30.7,37.3,22.8,37.3z"/>
</svg>
