<svg width="24" height="22" viewBox="0 0 24 22" fill="none" xmlns="http://www.w3.org/2000/svg">
<path d="M8 3H16V4H8V3Z" fill="#F20574"/>
<path fill-rule="evenodd" clip-rule="evenodd" d="M4 0V7H20V0H4ZM5 1V6H19V1H5Z" fill="#F20574"/>
<path fill-rule="evenodd" clip-rule="evenodd" d="M5 16C5 14.3431 6.34315 13 8 13C9.65685 13 11 14.3431 11 16C11 17.6569 9.65685 19 8 19C6.34315 19 5 17.6569 5 16ZM8 18C6.89543 18 6 17.1046 6 16C6 14.8954 6.89543 14 8 14C9.10457 14 10 14.8954 10 16C10 17.1046 9.10457 18 8 18Z" fill="#F20574"/>
<path fill-rule="evenodd" clip-rule="evenodd" d="M23 9V5C23 4.44772 22.5523 4 22 4H21V3H22C23.1046 3 24 3.89543 24 5V9C24 10.1046 23.1046 11 22 11V21H24V22H0V21H2L2 11C0.89543 11 0 10.1046 0 9V5C0 3.89543 0.895431 3 2 3H3V4H2C1.44772 4 1 4.44772 1 5V9C1 9.55229 1.44772 10 2 10H22C22.5523 10 23 9.55228 23 9ZM3 11H21V21H19V13H13V21H3V11ZM18 14V21H14V14H18Z" fill="#F20574"/>
</svg>
