<svg width="23" height="22" viewBox="0 0 23 22" fill="none" xmlns="http://www.w3.org/2000/svg">
<path d="M14 10H17V12H16V11H14V10Z" fill="#F20574"/>
<path d="M16 12V14H15V12H16Z" fill="#F20574"/>
<path d="M11 10H8V11H10V12H9V14H10V12H11V10Z" fill="#F20574"/>
<path d="M5 10H2V11H4V12H3V14H4V12H5V10Z" fill="#F20574"/>
<path fill-rule="evenodd" clip-rule="evenodd" d="M7 3V2.5C7 1.11926 8.11938 0 9.5 0C10.8806 0 12 1.11926 12 2.5V3H14C15.6567 3 17 4.34314 17 6V7C18.1045 7 19 7.89539 19 9V10H20V5.91467C19.4175 5.70874 19 5.15308 19 4.5C19 3.67163 19.6716 3 20.5 3C21.3284 3 22 3.67163 22 4.5C22 5.15308 21.5825 5.70874 21 5.91467V10C22.1045 10 23 10.8954 23 12C23 13.1046 22.1045 14 21 14H19V15C19 16.1046 18.1045 17 17 17V20H16V22H15V20H4V22H3V20H2V17C0.895508 17 0 16.1046 0 15V9C0 7.89539 0.895508 7 2 7V6C2 4.34314 3.34326 3 5 3H7ZM11 2.5V3H8V2.5C8 1.67163 8.67163 1 9.5 1C10.3284 1 11 1.67163 11 2.5ZM19 11V13H21C21.5522 13 22 12.5522 22 12C22 11.4478 21.5522 11 21 11H19ZM18 9V15C18 15.5522 17.5522 16 17 16H13V8H17C17.5522 8 18 8.44775 18 9ZM5 4C3.89551 4 3 4.89539 3 6V7H16V6C16 4.89539 15.1045 4 14 4H5ZM7 16V8H12V16H7ZM6 8V16H2C1.44775 16 1 15.5522 1 15V9C1 8.44775 1.44775 8 2 8H6ZM3 17V19H16V17H3Z" fill="#F20574"/>
</svg>