<svg width="24" height="16" viewBox="0 0 24 16" fill="none" xmlns="http://www.w3.org/2000/svg">
<path fill-rule="evenodd" clip-rule="evenodd" d="M16 1H8C4.13401 1 1 4.13401 1 8C1 11.866 4.13401 15 8 15H16C19.866 15 23 11.866 23 8C23 4.13401 19.866 1 16 1ZM8 0C3.58172 0 0 3.58172 0 8C0 12.4183 3.58172 16 8 16H16C20.4183 16 24 12.4183 24 8C24 3.58172 20.4183 0 16 0H8Z" fill="#F20574"/>
<path fill-rule="evenodd" clip-rule="evenodd" d="M16 2.4H8C4.90721 2.4 2.4 4.90721 2.4 8C2.4 11.0928 4.90721 13.6 8 13.6H16C19.0928 13.6 21.6 11.0928 21.6 8C21.6 4.90721 19.0928 2.4 16 2.4ZM8 2C4.68629 2 2 4.68629 2 8C2 11.3137 4.68629 14 8 14H16C19.3137 14 22 11.3137 22 8C22 4.68629 19.3137 2 16 2H8Z" fill="#F20574"/>
<path fill-rule="evenodd" clip-rule="evenodd" d="M10 4C9.44772 4 9 4.44772 9 5V11C9 11.5523 9.44772 12 10 12H13C13.5523 12 14 11.5523 14 11V5C14 4.44772 13.5523 4 13 4H10ZM11.0219 8.46599C11.1861 8.46681 11.3313 8.3805 11.4168 8.24875C11.3974 8.32542 11.3758 8.40254 11.3534 8.46764C11.2706 8.70809 11.0826 9.05785 11.0826 9.05785L11.903 9.06195C11.903 9.06195 11.7182 8.71032 11.6376 8.46906C11.6158 8.40374 11.5949 8.3264 11.5762 8.24954C11.6605 8.38215 11.8049 8.4699 11.9691 8.47072C12.2307 8.47203 12.4438 8.25239 12.4451 7.98014C12.4463 7.70788 12.2353 7.48612 11.9737 7.48482C11.9381 7.48464 11.9035 7.48854 11.8701 7.4961C11.9353 7.41211 11.9745 7.30538 11.975 7.18904C11.9763 6.91679 11.7653 6.69503 11.5037 6.69372C11.2421 6.69242 11.029 6.91206 11.0278 7.18431C11.0272 7.30065 11.0655 7.40776 11.1298 7.4924C11.0966 7.48451 11.0619 7.48026 11.0264 7.48008C10.7648 7.47878 10.5517 7.69842 10.5505 7.97067C10.5492 8.24292 10.7603 8.46468 11.0219 8.46599Z" fill="#F20574"/>
<path d="M15.3816 11.171C15.2995 11.3634 15.1641 11.5168 15 11.6213V8.99C15.2282 8.94367 15.4 8.74189 15.4 8.5C15.4 8.25811 15.2282 8.05633 15 8.01V5.42704L16.4777 6.05807C16.9856 6.27497 17.2215 6.86254 17.0046 7.37045L15.3816 11.171Z" fill="#F20574"/>
<path d="M6.48775 6.07283L8.00001 5.42704V8.01C7.77178 8.05633 7.60001 8.2581 7.60001 8.5C7.60001 8.7419 7.77178 8.94367 8.00001 8.99V11.6452C7.81738 11.5409 7.66604 11.3783 7.57707 11.17L5.96082 7.38522C5.74392 6.8773 5.97984 6.28973 6.48775 6.07283Z" fill="#F20574"/>
</svg>