<?xml version="1.0" encoding="utf-8"?>
<!-- Generator: Adobe Illustrator 16.0.0, SVG Export Plug-In . SVG Version: 6.00 Build 0)  -->
<!DOCTYPE svg PUBLIC "-//W3C//DTD SVG 1.1//EN" "http://www.w3.org/Graphics/SVG/1.1/DTD/svg11.dtd">
<svg version="1.1" id="Ebene_1" xmlns="http://www.w3.org/2000/svg" xmlns:xlink="http://www.w3.org/1999/xlink" x="0px" y="0px"
	 width="111.304px" height="111.304px" viewBox="0 0 111.304 111.304" enable-background="new 0 0 111.304 111.304"
	 xml:space="preserve">
<path d="M55.652,1.175c-30.087,0-54.478,24.391-54.478,54.477c0,30.087,24.391,54.478,54.478,54.478s54.477-24.391,54.477-54.478
	C110.129,25.565,85.739,1.175,55.652,1.175z M45.979,78.053h-7.006L22.918,28.864h6.86l7.663,24.229
	c2.117,6.641,3.941,12.626,5.254,18.39h0.146c1.387-5.691,3.43-11.896,5.62-18.317l8.319-24.302h6.787L45.979,78.053z
	 M83.641,61.778c0,13.062-6.422,17.078-14.888,17.078c-2.335,0-5.182-0.512-6.787-1.169l0.949-5.181
	c1.313,0.511,3.211,0.948,5.327,0.948c5.691,0,9.049-2.555,9.049-12.188V28.864h6.35V61.778z"/>
</svg>
